<svg xmlns="http://www.w3.org/2000/svg" width="36" height="33.279" viewBox="0 0 36 33.279"><defs><style>.a{fill:#fff59b;}.b{fill:#020288;}</style></defs><g transform="translate(0 -19.346)"><g transform="translate(4.434 32.283)"><path class="a" d="M63.059,203.335H78.146v15.822H63.059Z" transform="translate(-63.059 -203.335)"/></g><g transform="translate(0 19.346)"><path class="b" d="M33.589,26.936H29.636V24.568a2.05,2.05,0,0,0-2.058-2.037H21.584V20.049a.7.7,0,0,0-.7-.7H15.119a.7.7,0,0,0-.7.7v2.482H8.481a2.05,2.05,0,0,0-2.058,2.037v2.368H2.41A2.413,2.413,0,0,0,0,29.347V50.215a2.413,2.413,0,0,0,2.411,2.411H33.589A2.413,2.413,0,0,0,36,50.215V29.347A2.413,2.413,0,0,0,33.589,26.936ZM20.178,20.752v3.493H15.845l-.022-3.493ZM7.83,24.568a.642.642,0,0,1,.651-.631h5.935v1.011a.773.773,0,0,0,.726.756h5.776a.7.7,0,0,0,.7-.7V23.937h5.957a.642.642,0,0,1,.651.631v2.368H7.83ZM34.594,50.215a1,1,0,0,1-1,1H2.411a1,1,0,0,1-1-1V29.347a1,1,0,0,1,1-1H7a.709.709,0,0,0,.127.012H28.933a.7.7,0,0,0,.127-.012h4.53a1,1,0,0,1,1,1V50.215Z" transform="translate(0 -19.346)"/><path class="b" d="M118.022,243.829a3.209,3.209,0,1,0-5.279,0,1.768,1.768,0,0,0-1.517,1.748v3.343a.7.7,0,0,0,.7.7h6.907a.7.7,0,0,0,.7-.7v-3.343A1.768,1.768,0,0,0,118.022,243.829Zm-2.64-3.636a1.809,1.809,0,1,1-1.8,1.809A1.808,1.808,0,0,1,115.383,240.192Zm2.75,8.024h-5.5v-2.64a.36.36,0,0,1,.359-.359h4.782a.36.36,0,0,1,.359.359Z" transform="translate(-103.405 -223.357)"/><path class="b" d="M321.9,262.084h4.851a.7.7,0,0,0,0-1.406H321.9a.7.7,0,1,0,0,1.406Z" transform="translate(-298.61 -243.709)"/><path class="b" d="M329.431,305.849H321.9a.7.7,0,0,0,0,1.406h7.534a.7.7,0,0,0,0-1.406Z" transform="translate(-298.61 -285.704)"/><path class="b" d="M329.431,351.019H321.9a.7.7,0,1,0,0,1.406h7.534a.7.7,0,1,0,0-1.406Z" transform="translate(-298.61 -327.698)"/></g></g></svg>