<svg xmlns="http://www.w3.org/2000/svg" width="92.573" height="18" viewBox="0 0 92.573 18"><defs><style>.a{fill:#0f124d;}</style></defs><g transform="translate(-22.31 -17.81)"><path class="a" d="M22.31,31.534l3.412-1.98a3.614,3.614,0,0,0,3.627,2.4c1.879,0,2.348-.743,2.348-1.408,0-1.065-.989-1.483-3.583-2.2-2.567-.716-5.085-1.953-5.085-5.266,0-3.337,2.813-5.266,5.8-5.266a6.711,6.711,0,0,1,6.324,3.906L31.82,23.668a3.025,3.025,0,0,0-2.987-2c-1.235,0-1.855.617-1.855,1.309,0,.791.421,1.336,3.114,2.151,2.618.791,5.557,1.706,5.557,5.365,0,3.34-2.669,5.317-6.423,5.317C25.6,35.81,23.275,34.08,22.31,31.534Z" transform="translate(0 0)"/><path class="a" d="M39.451,21.717H35v13.5H31.053v-13.5H26.608V17.911H39.451Z" transform="translate(10.43 0.245)"/><path class="a" d="M30.724,26.81a8.99,8.99,0,1,1,8.99,9A8.916,8.916,0,0,1,30.724,26.81Zm14.027,0a5.038,5.038,0,1,0-10.074,0,5.038,5.038,0,1,0,10.074,0Z" transform="translate(20.42 0)"/><path class="a" d="M40.944,17.911V35.22H36.992V17.911Z" transform="translate(35.621 0.245)"/><path class="a" d="M39.158,26.81a8.77,8.77,0,0,1,8.993-9,8.62,8.62,0,0,1,7.409,4l-3.408,1.977a4.473,4.473,0,0,0-4-2.124A4.789,4.789,0,0,0,43.11,26.81a4.789,4.789,0,0,0,5.041,5.142,4.441,4.441,0,0,0,4-2.128l3.408,1.98a8.564,8.564,0,0,1-7.409,4A8.77,8.77,0,0,1,39.158,26.81Z" transform="translate(40.887 0)"/><path class="a" d="M56.031,32.5H49.607l-.862,2.72H44.423L50.3,17.911h5.037L61.218,35.22H56.9Zm-1.184-3.71-2.026-6.355-2.026,6.355Z" transform="translate(53.665 0.245)"/></g></svg>