<svg xmlns="http://www.w3.org/2000/svg" width="36" height="29.099" viewBox="0 0 36 29.099"><defs><style>.a{fill:#020288;}.b{fill:#ffbdbc;}</style></defs><g transform="translate(0 -49.073)"><g transform="translate(2.037 55.149)"><g transform="translate(3.94)"><g transform="translate(0 4.553)"><path class="a" d="M92.153,206.138H89.087a.676.676,0,0,1-.676-.676v-5.041a.676.676,0,0,1,.676-.676h3.065a.676.676,0,0,1,.676.676v5.041A.676.676,0,0,1,92.153,206.138Zm-2.389-1.352h1.713V201.1H89.763Z" transform="translate(-88.411 -199.745)"/></g><g transform="translate(19.628)"><path class="a" d="M361.991,143.349h-3.065a.676.676,0,0,1-.676-.676v-9.594a.676.676,0,0,1,.676-.676h3.065a.676.676,0,0,1,.676.676v9.594A.676.676,0,0,1,361.991,143.349ZM359.6,142h1.713v-8.241H359.6Z" transform="translate(-358.249 -132.403)"/></g><g transform="translate(6.543 2.171)"><path class="a" d="M182.1,173.286h-3.065a.676.676,0,0,1-.676-.676v-7.423a.676.676,0,0,1,.676-.676H182.1a.676.676,0,0,1,.676.676v7.423A.676.676,0,0,1,182.1,173.286Zm-2.389-1.352h1.713v-6.07h-1.713Z" transform="translate(-178.357 -164.511)"/></g><g transform="translate(13.085 5.635)"><path class="a" d="M272.045,221.063h-3.065a.676.676,0,0,1-.676-.676v-3.958a.676.676,0,0,1,.676-.676h3.065a.676.676,0,0,1,.676.676v3.958A.676.676,0,0,1,272.045,221.063Zm-2.389-1.352h1.713v-2.606h-1.713Z" transform="translate(-268.303 -215.753)"/></g></g><g transform="translate(0 9.607)"><path class="b" d="M30.133,274.5H62.058v4.125H30.133Z" transform="translate(-30.133 -274.496)"/></g></g><g transform="translate(0 49.073)"><path class="a" d="M35.3,71.822h-.713V50.941a1.87,1.87,0,0,0-1.868-1.868H3.284a1.87,1.87,0,0,0-1.868,1.868v20.88H.7a.7.7,0,0,0-.7.7v2.991a2.659,2.659,0,0,0,2.656,2.656H33.344A2.659,2.659,0,0,0,36,75.516V72.525A.7.7,0,0,0,35.3,71.822ZM2.822,50.941a.463.463,0,0,1,.462-.462H32.716a.463.463,0,0,1,.462.462v20.88H2.822ZM34.594,75.516a1.251,1.251,0,0,1-1.25,1.25H2.656a1.251,1.251,0,0,1-1.25-1.25V73.228H34.594Z" transform="translate(0 -49.073)"/><path class="a" d="M221.064,407.768h-4a.676.676,0,1,0,0,1.352h4a.676.676,0,1,0,0-1.352Z" transform="translate(-201.061 -382.398)"/></g></g></svg>