<svg width="302" height="59" viewBox="0 0 302 59" fill="none" xmlns="http://www.w3.org/2000/svg">
<path d="M0 44.4211L10.9813 38.1604C13.0589 42.9305 16.3236 45.9117 22.5563 45.9117C28.4921 45.9117 29.9761 43.5267 29.9761 41.4398C29.9761 37.8623 26.7114 36.6698 18.4012 34.2847C10.091 31.8997 2.07755 28.0241 2.07755 17.2914C2.37434 6.26069 11.2781 0 21.0723 0C30.2729 0 37.3959 4.47192 41.551 12.5214L30.8665 18.7821C28.7889 14.9064 26.1178 12.5214 21.0723 12.5214C17.214 12.5214 15.1364 14.6083 15.1364 16.6952C15.1364 19.3783 16.6204 20.869 25.2274 23.5521C33.5376 26.2353 43.035 28.9184 43.035 40.8436C43.035 51.5762 34.428 58.135 22.2595 58.135C10.6846 58.135 2.96793 52.4706 0 44.4211Z" fill="#020F39"/>
<path d="M89.09 13.594H75.0111V56.625H62.3988V13.594H48.32V1.51001H89.09V13.594Z" fill="#020F39"/>
<path d="M94.375 29.0675C94.375 12.7541 107.426 0 123.442 0C139.459 0 152.51 12.4575 152.51 29.0675C152.51 45.3809 139.459 58.135 123.442 58.135C107.426 58.135 94.375 45.3809 94.375 29.0675ZM139.756 29.0675C139.756 19.2795 132.637 12.4575 123.442 12.4575C114.248 12.4575 107.129 18.9829 107.129 29.0675C107.129 39.1521 114.248 45.6775 123.442 45.6775C132.637 45.3809 139.756 38.8555 139.756 29.0675Z" fill="#020F39"/>
<path d="M176.67 1.51001H163.835V56.625H176.67V1.51001Z" fill="#020F39"/>
<path d="M188.75 28.9832C188.75 12.7171 200.923 0 217.847 0C227.942 0 236.849 5.02769 241.6 12.7171L230.614 18.9278C228.239 14.7873 223.488 12.1256 217.847 12.1256C208.049 12.1256 201.517 18.632 201.517 28.6874C201.517 38.7428 207.752 45.2492 217.847 45.2492C223.488 45.2492 228.239 42.5875 230.614 38.4471L241.6 44.6577C236.849 52.6429 227.942 57.3748 217.847 57.3748C200.923 57.6706 188.75 45.2492 188.75 28.9832Z" fill="#020F39"/>
<path d="M285.068 48.0068H264.275L261.601 56.625H247.64L266.651 0.755005H282.989L302 56.625H288.039L285.068 48.0068ZM281.207 36.1195L274.671 15.614L268.136 36.1195H281.207Z" fill="#020F39"/>
</svg>
