<svg xmlns="http://www.w3.org/2000/svg" width="48.869" height="39.751" viewBox="0 0 48.869 39.751"><defs><style>.a,.b{fill:#394149;}.b{fill-rule:evenodd;}</style></defs><path class="a" d="M74.12,39.9V38.251H73.2v1.564c0,.28-.26.468-.7.468-.458,0-.707-.181-.707-.471V38.251h-.926v1.561c0,.813.666,1.158,1.6,1.158C73.464,40.97,74.12,40.622,74.12,39.9Z" transform="translate(-58.457 -26.266)"/><path class="a" d="M78.859,40.933v-.714H77.227V38.251H76.3v2.681Z" transform="translate(-60.113 -26.266)"/><path class="a" d="M82.537,38.924v-.673h-3.2v.673h1.131v2.008H81.4V38.924Z" transform="translate(-61.04 -26.266)"/><path class="a" d="M85.3,40.933V38.251h-.939v2.681Z" transform="translate(-62.574 -26.266)"/><path class="a" d="M90.256,40.933V38.251H89.1l-.731,1.609-.7-1.609h-1.2v2.681h.871V39.484l.628,1.448h.779l.635-1.448v1.448Z" transform="translate(-63.219 -26.266)"/><path class="a" d="M93.471,40.437h1.448l.236.5h.987L94.79,38.251h-1.1l-1.431,2.681h.967Zm1.158-.6h-.857l.338-.646.1-.246.1.242Z" transform="translate(-64.983 -26.266)"/><path class="a" d="M100.623,38.924v-.673h-3.2v.673h1.131v2.008h.936V38.924Z" transform="translate(-66.561 -26.266)"/><path class="a" d="M105.268,40.933v-.666h-1.922v-.348h1.844v-.652h-1.844v-.345h1.9v-.669h-2.8v2.681Z" transform="translate(-68.094 -26.266)"/><path class="a" d="M78.694,44.162H77.81s-.577,1.687-.577,1.728c0-.041-.54-1.728-.54-1.728h-.96S75.2,45.85,75.2,45.891c0-.041-.581-1.728-.581-1.728h-.994l1,2.681h1s.54-1.6.543-1.646c0,.044.54,1.646.54,1.646h1Z" transform="translate(-59.295 -28.071)"/><path class="a" d="M82.253,46.844V44.162h-.939v2.681Z" transform="translate(-61.643 -28.071)"/><path class="a" d="M86.551,46.844V44.162h-.874v1.458l-1.288-1.458h-.963v2.681h.881V45.351l1.329,1.493Z" transform="translate(-62.288 -28.071)"/><path class="a" d="M91.818,46.844V44.162h-.874v1.458l-1.288-1.458h-.963v2.681h.881V45.351L90.9,46.844Z" transform="translate(-63.896 -28.071)"/><path class="a" d="M96.785,46.844v-.666H94.862v-.348h1.844v-.652H94.862v-.345h1.9v-.669h-2.8v2.681Z" transform="translate(-65.504 -28.071)"/><path class="a" d="M101.827,44.979a.735.735,0,0,0-.181-.543,1.139,1.139,0,0,0-.861-.273H98.651v2.681h.912V45.9h.83l.666.946h1.018l-.809-1.093a.654.654,0,0,0,.423-.266A.878.878,0,0,0,101.827,44.979Zm-.888.085a.285.285,0,0,1-.031.14c-.034.068-.123.1-.27.1H99.566v-.488h1.055c.144,0,.24.024.287.113A.254.254,0,0,1,100.939,45.064Z" transform="translate(-66.936 -28.071)"/><path class="a" d="M75.191,51.243v-1.31h-.32v1.29c0,.3-.286.477-.7.477-.487,0-.727-.186-.727-.48V49.933h-.322v1.277c0,.536.418.774,1.037.774C74.8,51.983,75.191,51.73,75.191,51.243Z" transform="translate(-59.143 -29.832)"/><path class="a" d="M78.648,51.957v-.3h-1.4V49.933h-.322v2.025Z" transform="translate(-60.305 -29.832)"/><path class="a" d="M81.095,50.227v-.294H78.944v.294h.913v1.731h.325V50.227Z" transform="translate(-60.92 -29.832)"/><path class="a" d="M84.47,50.505a.6.6,0,0,0-.085-.335.652.652,0,0,0-.583-.237h-1.31v2.025h.317V51.1h.923l.565.854h.371l-.611-.908a.447.447,0,0,0,.34-.219A.645.645,0,0,0,84.47,50.505Zm-.32.026a.423.423,0,0,1-.036.173c-.041.075-.137.113-.291.116H82.812v-.6h.952c.193,0,.3.046.351.134A.393.393,0,0,1,84.15,50.531Z" transform="translate(-62.003 -29.832)"/><path class="a" d="M86.4,51.457h1.261l.258.5h.346l-1.027-2.025h-.379L85.8,51.957h.338Zm1.127-.286h-.988l.41-.776.09-.188.09.188Z" transform="translate(-63.012 -29.832)"/><path class="a" d="M93.162,51.764a.557.557,0,0,0,.116-.366.512.512,0,0,0-.119-.351.6.6,0,0,0-.351-.155A.313.313,0,0,0,93,50.774a.531.531,0,0,0,.111-.338.471.471,0,0,0-.129-.346.672.672,0,0,0-.485-.157H91.135v2.025H92.6A.7.7,0,0,0,93.162,51.764ZM92.778,50.5a.3.3,0,0,1-.077.217.293.293,0,0,1-.219.077H91.45v-.583h.972a.386.386,0,0,1,.271.08A.285.285,0,0,1,92.778,50.5Zm.1,1.068a.435.435,0,0,1-.338.108H91.45v-.6h1.1a.445.445,0,0,1,.315.09.268.268,0,0,1,.08.2A.272.272,0,0,1,92.881,51.568Z" transform="translate(-64.641 -29.832)"/><path class="a" d="M96.761,51.957v-.3H95.188v-.578H96.7v-.294H95.188v-.562h1.555v-.294h-1.87v2.025Z" transform="translate(-65.783 -29.832)"/><path class="a" d="M100.264,51.347c0-.33-.219-.5-.758-.562-.091-.013-.287-.033-.392-.046-.5-.059-.652-.126-.652-.3s.168-.263.673-.263c.392,0,.593.077.694.217a.321.321,0,0,1,.051.121h.345a.716.716,0,0,0-.069-.209c-.139-.24-.425-.413-1.021-.413-.712,0-1.006.255-1.006.575s.23.482.825.552l.377.044c.462.057.606.126.606.32,0,.178-.165.307-.694.307-.433,0-.665-.077-.758-.227a.331.331,0,0,1-.049-.15h-.34a.673.673,0,0,0,.08.273c.134.245.449.387,1.057.387C99.96,51.973,100.264,51.739,100.264,51.347Z" transform="translate(-66.766 -29.82)"/><path class="a" d="M103.6,50.227v-.294H101.45v.294h.913v1.731h.325V50.227Z" transform="translate(-67.79 -29.832)"/><path class="a" d="M70.925,55.08a.79.79,0,0,0-.111-.451c-.1-.152-.289-.232-.622-.232H68.913v2.025h.32v-.66h.947a.73.73,0,0,0,.64-.24A.748.748,0,0,0,70.925,55.08Zm-.325,0a.438.438,0,0,1-.044.232c-.059.1-.181.155-.431.155h-.892v-.781h.9c.235,0,.356.054.42.16A.462.462,0,0,1,70.6,55.08Z" transform="translate(-57.858 -31.195)"/><path class="a" d="M74.339,56.421v-.3H72.766v-.578h1.511v-.294H72.766V54.69h1.555V54.4h-1.87v2.025Z" transform="translate(-58.938 -31.195)"/><path class="a" d="M77.841,54.969a.6.6,0,0,0-.085-.335.652.652,0,0,0-.583-.237h-1.31v2.025h.317v-.854H77.1l.565.854h.371l-.611-.908a.447.447,0,0,0,.34-.219A.646.646,0,0,0,77.841,54.969Zm-.32.026a.423.423,0,0,1-.036.173c-.041.075-.137.113-.291.116H76.183v-.6h.952c.193,0,.3.046.351.134A.393.393,0,0,1,77.521,54.995Z" transform="translate(-59.979 -31.195)"/><path class="a" d="M81.361,54.69V54.4h-1.8v2.025h.32v-.861h1.413v-.3H79.881V54.69Z" transform="translate(-61.108 -31.195)"/><path class="a" d="M83.74,54.344a1.212,1.212,0,0,0-.939.328.946.946,0,0,0-.255.714.956.956,0,0,0,.286.745,1.539,1.539,0,0,0,1.844-.01,1,1,0,0,0,.255-.738.947.947,0,0,0-.253-.725A1.236,1.236,0,0,0,83.74,54.344Zm0,1.8a.963.963,0,0,1-.637-.186.694.694,0,0,1-.23-.567.731.731,0,0,1,.188-.542.945.945,0,0,1,.676-.214.966.966,0,0,1,.683.211.877.877,0,0,1-.005,1.086A.939.939,0,0,1,83.74,56.144Z" transform="translate(-62.02 -31.179)"/><path class="a" d="M88.594,54.969a.6.6,0,0,0-.085-.335.652.652,0,0,0-.583-.237h-1.31v2.025h.317v-.854h.923l.565.854h.371l-.611-.908a.447.447,0,0,0,.34-.219A.645.645,0,0,0,88.594,54.969Zm-.32.026a.423.423,0,0,1-.036.173c-.041.075-.137.113-.291.116H86.936v-.6h.952c.193,0,.3.046.351.134A.393.393,0,0,1,88.274,54.995Z" transform="translate(-63.262 -31.195)"/><path class="a" d="M92.808,56.421V54.4H92.39l-.833,1.666L90.739,54.4h-.426v2.025h.307V54.863l.763,1.558h.335l.781-1.558v1.558Z" transform="translate(-64.391 -31.195)"/><path class="a" d="M94.943,55.92H96.2l.258.5h.346L95.782,54.4H95.4l-1.06,2.025h.338Zm1.127-.286h-.988l.41-.776.09-.188.09.188Z" transform="translate(-65.621 -31.195)"/><path class="a" d="M100.352,56.421V54.4h-.307v1.573L98.7,54.4H98.34v2.025h.312V54.837L100,56.421Z" transform="translate(-66.841 -31.195)"/><path class="a" d="M104.209,55.649h-.336a.45.45,0,0,1-.111.255.861.861,0,0,1-.7.232.9.9,0,0,1-.741-.289.913.913,0,0,1-.018-.895.832.832,0,0,1,.751-.3.9.9,0,0,1,.7.235.451.451,0,0,1,.118.258h.336a.78.78,0,0,0-.124-.361,1.137,1.137,0,0,0-1.027-.438,1.148,1.148,0,0,0-1.024.426.991.991,0,0,0-.17.616,1.038,1.038,0,0,0,.191.663,1.2,1.2,0,0,0,1.024.384,1.072,1.072,0,0,0,.991-.407A.8.8,0,0,0,104.209,55.649Z" transform="translate(-67.916 -31.179)"/><path class="a" d="M107.733,56.421v-.3H106.16v-.578h1.512v-.294H106.16V54.69h1.556V54.4h-1.87v2.025Z" transform="translate(-69.132 -31.195)"/><path class="a" d="M73.894,60.205l.386,1.187h1.248l-1.01.734.386,1.187-1.01-.734-1.01.734.386-1.187-1.01-.734h1.248Z" transform="translate(-58.879 -32.968)"/><path class="a" d="M80.289,60.206l.394,1.187h1.274l-1.03.734.394,1.187-1.03-.734-1.03.734.394-1.187-1.03-.734H79.9Z" transform="translate(-60.821 -32.968)"/><path class="a" d="M86.648,60.206l.394,1.187h1.274l-1.03.734.394,1.187-1.03-.734-1.03.734.394-1.187-1.03-.734h1.274Z" transform="translate(-62.763 -32.968)"/><path class="a" d="M93.007,60.206l.394,1.187h1.274l-1.03.734.394,1.187-1.03-.734-1.03.734.394-1.187-1.03-.734h1.274Z" transform="translate(-64.704 -32.968)"/><path class="a" d="M99.431,60.206l.386,1.187h1.248l-1.01.734.386,1.187-1.009-.734-1.01.734.386-1.187-1.01-.734h1.248Z" transform="translate(-66.675 -32.968)"/><path class="a" d="M77.183,31.376l.292.9h.944l-.764.555.292.9-.764-.555-.764.555.292-.9-.764-.555h.944Z" transform="translate(-60.005 -24.168)"/><path class="a" d="M82.018,31.374l.3.9h.963l-.779.555.3.9-.779-.555-.779.555.3-.9-.779-.555h.963Z" transform="translate(-61.474 -24.167)"/><path class="a" d="M86.826,31.374l.3.9h.963l-.779.555.3.9-.779-.555-.779.555.3-.9-.779-.555h.963Z" transform="translate(-62.941 -24.167)"/><path class="a" d="M91.635,31.374l.3.9H92.9l-.779.555.3.9-.779-.555-.779.555.3-.9-.779-.555h.963Z" transform="translate(-64.409 -24.167)"/><path class="a" d="M96.491,31.374l.292.9h.944l-.764.555.292.9-.764-.555-.764.555.292-.9-.764-.555H96.2Z" transform="translate(-65.899 -24.167)"/><path class="b" d="M58.267,46.088c-1.287-8.053,2.469-16.02,9.989-19.441l.069.153c-7.444,3.387-11.169,11.276-9.893,19.262C59.845,54.9,66.972,60.2,75.7,60.451l0,.168C66.9,60.361,59.694,55.014,58.267,46.088Z" transform="translate(-54.532 -22.724)"/><path class="a" d="M68.661,29.6a5.751,5.751,0,0,0-3.976,1.954c.77.715,2.008.45,2.9.3a14.574,14.574,0,0,0,3.824-1.185C70.915,29.627,69.586,29.583,68.661,29.6Z" transform="translate(-56.567 -23.625)"/><path class="a" d="M67.359,25.8a24.992,24.992,0,0,1-2.872,3.679c-.893-.838-.354-2.234.01-3.1a7.392,7.392,0,0,1,3.9-3.622C68.851,23.789,67.864,25.013,67.359,25.8Z" transform="translate(-56.358 -21.536)"/><path class="a" d="M63.31,34.633a5.665,5.665,0,0,0-2.981,3.072c.936.435,2-.193,2.778-.612a11.988,11.988,0,0,0,3.016-2.284C65.348,33.992,64.171,34.327,63.31,34.633Z" transform="translate(-55.237 -25.059)"/><path class="a" d="M61.288,31.54A19.964,19.964,0,0,1,59.9,35.9c-1.095-.516-1.053-2-1.006-2.936a7.224,7.224,0,0,1,2.23-4.6C61.888,29.182,61.47,30.608,61.288,31.54Z" transform="translate(-54.793 -23.247)"/><path class="a" d="M60.183,41.066a5.879,5.879,0,0,0-1.894,3.856c1.026.118,1.846-.816,2.456-1.456a11.125,11.125,0,0,0,2.116-3.11C61.884,39.823,60.89,40.509,60.183,41.066Z" transform="translate(-54.615 -26.85)"/><path class="a" d="M57.429,39.123a18.152,18.152,0,0,1,0,4.58c-1.193-.147-1.589-1.579-1.822-2.477a7.546,7.546,0,0,1,.653-5.062C57.243,36.707,57.306,38.179,57.429,39.123Z" transform="translate(-53.739 -25.629)"/><path class="a" d="M59.378,48.019a6.418,6.418,0,0,0-.774,4.81c1.134-.268,1.7-1.552,2.147-2.459a13.058,13.058,0,0,0,1.288-3.99C60.81,46.124,59.943,47.191,59.378,48.019Z" transform="translate(-54.66 -28.736)"/><path class="a" d="M55.526,47.329a22.986,22.986,0,0,1,1.5,4.933c-1.3.279-2.236-1.086-2.78-1.991a8.648,8.648,0,0,1-.9-5.774C54.537,44.735,55.119,46.386,55.526,47.329Z" transform="translate(-53.061 -28.173)"/><path class="a" d="M60.563,55.516a6.476,6.476,0,0,0,.792,5.031c1.025-.667,1.167-2.136,1.312-3.189a14.888,14.888,0,0,0,.044-4.37C61.4,53.154,60.871,54.5,60.563,55.516Z" transform="translate(-55.245 -30.765)"/><path class="a" d="M56.04,56.644a27.008,27.008,0,0,1,3.086,4.368c-1.187.741-2.579-.271-3.424-.988A8.674,8.674,0,0,1,53,54.559C54.247,54.391,55.346,55.848,56.04,56.644Z" transform="translate(-53 -31.24)"/><path class="a" d="M64.128,62.642a6.509,6.509,0,0,0,2.793,4.7c.743-1.017.277-2.576.024-3.664a18.773,18.773,0,0,0-1.515-4.343C64.206,59.979,64.063,61.474,64.128,62.642Z" transform="translate(-56.393 -32.702)"/><path class="a" d="M59.481,65.731a42.716,42.716,0,0,1,4.874,3.182c-.925,1.219-2.775.733-3.922.341a8.749,8.749,0,0,1-4.763-4.531C56.864,64.108,58.5,65.183,59.481,65.731Z" transform="translate(-53.815 -34.291)"/><path class="a" d="M70.667,68.69a7.4,7.4,0,0,0,5.427,3.3c.231-1.327-1.205-2.641-1.988-3.5a33.968,33.968,0,0,0-3.577-3.552C69.554,66.072,70.07,67.6,70.667,68.69Z" transform="translate(-58.185 -34.413)"/><path class="a" d="M66.993,73.582c2.274.236,4.586.577,6.859.969-.217,1.675-2.874,1.945-4.081,2.044A10.094,10.094,0,0,1,62.63,74.13C63.582,73.01,65.782,73.457,66.993,73.582Z" transform="translate(-55.94 -36.993)"/><path class="a" d="M73.371,24.44a6.929,6.929,0,0,0-4.2,2.787,29.558,29.558,0,0,0,4.717-1.179A50.946,50.946,0,0,0,79.1,24.525,9.145,9.145,0,0,0,73.371,24.44Z" transform="translate(-57.938 -21.922)"/><path class="b" d="M110.14,46.061c1.276-7.986-2.449-15.875-9.893-19.262l.069-.153c7.52,3.421,11.276,11.388,9.989,19.441-1.426,8.926-8.632,14.273-17.428,14.53l0-.168C101.6,60.2,108.728,54.9,110.14,46.061Z" transform="translate(-65.172 -22.724)"/><path class="a" d="M104.728,29.6a5.752,5.752,0,0,1,3.976,1.954c-.77.715-2.008.45-2.9.3a14.568,14.568,0,0,1-3.824-1.185C102.473,29.627,103.8,29.583,104.728,29.6Z" transform="translate(-67.952 -23.625)"/><path class="a" d="M107,25.8a25.029,25.029,0,0,0,2.871,3.679c.893-.838.354-2.234-.01-3.1a7.39,7.39,0,0,0-3.9-3.622C105.508,23.789,106.5,25.013,107,25.8Z" transform="translate(-69.132 -21.536)"/><path class="a" d="M110.488,34.633a5.665,5.665,0,0,1,2.98,3.072c-.936.435-2-.193-2.778-.612a11.979,11.979,0,0,1-3.016-2.284C108.45,33.992,109.627,34.327,110.488,34.633Z" transform="translate(-69.691 -25.059)"/><path class="a" d="M113.872,31.54a19.956,19.956,0,0,0,1.389,4.36c1.095-.516,1.053-2,1.006-2.936a7.222,7.222,0,0,0-2.229-4.6C113.271,29.182,113.69,30.608,113.872,31.54Z" transform="translate(-71.497 -23.247)"/><path class="a" d="M114.15,41.066a5.878,5.878,0,0,1,1.894,3.856c-1.025.118-1.845-.816-2.455-1.456a11.107,11.107,0,0,1-2.116-3.11C112.45,39.823,113.445,40.509,114.15,41.066Z" transform="translate(-70.85 -26.85)"/><path class="a" d="M117.968,39.123a18.142,18.142,0,0,0,0,4.58c1.193-.147,1.589-1.579,1.822-2.477a7.547,7.547,0,0,0-.653-5.062C118.154,36.707,118.091,38.179,117.968,39.123Z" transform="translate(-72.788 -25.629)"/><path class="a" d="M115.383,48.019a6.42,6.42,0,0,1,.774,4.81c-1.134-.268-1.7-1.552-2.147-2.459a13.059,13.059,0,0,1-1.288-3.99C113.951,46.124,114.818,47.191,115.383,48.019Z" transform="translate(-71.231 -28.736)"/><path class="a" d="M119.137,47.329a22.978,22.978,0,0,0-1.5,4.933c1.3.279,2.236-1.086,2.78-1.991a8.651,8.651,0,0,0,.9-5.774C120.127,44.735,119.544,46.386,119.137,47.329Z" transform="translate(-72.733 -28.173)"/><path class="a" d="M114.681,55.516a6.475,6.475,0,0,1-.792,5.031c-1.025-.667-1.167-2.136-1.312-3.189a14.917,14.917,0,0,1-.044-4.37C113.844,53.154,114.374,54.5,114.681,55.516Z" transform="translate(-71.13 -30.765)"/><path class="a" d="M117.611,56.644a27.057,27.057,0,0,0-3.086,4.368c1.187.741,2.58-.271,3.424-.988a8.676,8.676,0,0,0,2.7-5.466C119.4,54.391,118.305,55.848,117.611,56.644Z" transform="translate(-71.782 -31.24)"/><path class="a" d="M110.8,62.642a6.509,6.509,0,0,1-2.792,4.7c-.743-1.017-.277-2.576-.024-3.664a18.773,18.773,0,0,1,1.515-4.343C110.727,59.979,110.87,61.474,110.8,62.642Z" transform="translate(-69.671 -32.702)"/><path class="a" d="M113.046,65.731a42.706,42.706,0,0,0-4.874,3.182c.925,1.219,2.775.733,3.921.341a8.748,8.748,0,0,0,4.763-4.531C115.663,64.108,114.03,65.183,113.046,65.731Z" transform="translate(-69.842 -34.291)"/><path class="a" d="M102.98,68.69a7.4,7.4,0,0,1-5.427,3.3c-.231-1.327,1.2-2.641,1.988-3.5a33.892,33.892,0,0,1,3.576-3.552C104.093,66.072,103.577,67.6,102.98,68.69Z" transform="translate(-66.593 -34.413)"/><path class="a" d="M104.418,73.582c-2.274.236-4.586.577-6.859.969.217,1.675,2.875,1.945,4.081,2.044a10.092,10.092,0,0,0,7.141-2.465C107.83,73.01,105.63,73.457,104.418,73.582Z" transform="translate(-66.603 -36.993)"/><path class="a" d="M98.609,24.44a6.928,6.928,0,0,1,4.2,2.787,29.567,29.567,0,0,1-4.717-1.179,50.945,50.945,0,0,1-5.212-1.522A9.145,9.145,0,0,1,98.609,24.44Z" transform="translate(-65.173 -21.922)"/><path class="a" d="M88.133,22.728,87.35,21l-.769,1.7-1.787-1.108L85.942,24H88.8l1.107-2.414Z" transform="translate(-62.706 -21)"/><path class="a" d="M89.275,25.861H86.414v.422h2.861Z" transform="translate(-63.2 -22.484)"/><path class="a" d="M87.909,72.872l.461,1.419h1.492l-1.207.877.461,1.419-1.207-.877-1.207.877.461-1.419-1.207-.877h1.492Z" transform="translate(-63.061 -36.835)"/></svg>