<svg xmlns="http://www.w3.org/2000/svg" width="134.88" height="26.516" viewBox="0 0 134.88 26.516"><defs><style>.a{fill:#474860;}</style></defs><path class="a" d="M41.364,48.365a3.635,3.635,0,0,0-1.04,2.912l-.018-.018a4.319,4.319,0,0,1-4.667,4.667l.018.018a3.657,3.657,0,1,0,3.3,3.3l.019.018a4.319,4.319,0,0,1,4.667-4.667l-.019-.018a3.65,3.65,0,1,0-2.259-6.212Z" transform="translate(-21.13 -36.728)"/><path class="a" d="M33.974,53.545l-.019-.018a3.61,3.61,0,0,0,3.955-3.952l.019.018A4.319,4.319,0,0,1,42.6,44.926l-.019-.018a3.657,3.657,0,1,0-3.3-3.3l-.018-.019a4.318,4.318,0,0,1-4.667,4.667l.018.019a3.61,3.61,0,0,0-3.955,3.952l-.018-.018a4.32,4.32,0,0,1-4.667,4.667l.018.018a3.657,3.657,0,1,0,3.3,3.3l.019.018a4.319,4.319,0,0,1,4.667-4.667Z" transform="translate(-21.075 -36.673)"/><path class="a" d="M27.3,51.544a3.631,3.631,0,0,0,1.039-2.912l.019.018a4.319,4.319,0,0,1,4.669-4.667l-.019-.018a3.656,3.656,0,1,0-3.3-3.3l-.018-.018a4.319,4.319,0,0,1-4.667,4.667l.018.018a3.65,3.65,0,1,0,2.26,6.212Z" transform="translate(-21.07 -36.668)"/><path class="a" d="M58.317,41.655H61.27V56.026H58.317Z" transform="translate(-21.28 -36.696)"/><path class="a" d="M62.969,51.129a5.217,5.217,0,1,1,5.217,5.2,5.159,5.159,0,0,1-5.217-5.2Zm7.481,0a2.265,2.265,0,1,0-2.264,2.328,2.208,2.208,0,0,0,2.264-2.328Z" transform="translate(-21.306 -36.72)"/><path class="a" d="M85.24,46.207v9.347c0,3.307-2.579,4.705-5.2,4.705a5.033,5.033,0,0,1-4.665-2.386l2.52-1.457a2.249,2.249,0,0,0,2.244,1.24,1.962,1.962,0,0,0,2.224-2.106v-.9a3.5,3.5,0,0,1-2.875,1.28,5,5,0,0,1,0-10,3.5,3.5,0,0,1,2.875,1.28v-1Zm-2.874,4.724a2.386,2.386,0,1,0-2.381,2.287,2.227,2.227,0,0,0,2.381-2.287Z" transform="translate(-21.372 -36.72)"/><path class="a" d="M86.982,51.129a5.217,5.217,0,1,1,5.217,5.2,5.159,5.159,0,0,1-5.217-5.2Zm7.481,0A2.265,2.265,0,1,0,92.2,53.457a2.208,2.208,0,0,0,2.264-2.328Z" transform="translate(-21.442 -36.72)"/><path class="a" d="M98.861,43.546a1.772,1.772,0,1,1,1.772,1.772A1.79,1.79,0,0,1,98.861,43.546Zm.3,2.638h2.954v9.844H99.155Z" transform="translate(-21.509 -36.697)"/><path class="a" d="M114.9,51.129a4.943,4.943,0,0,1-4.705,5.2,3.694,3.694,0,0,1-2.932-1.2v4.863H104.3V46.207h2.953v.925a3.7,3.7,0,0,1,2.932-1.2,4.942,4.942,0,0,1,4.705,5.2Zm-2.953,0a2.343,2.343,0,1,0-2.342,2.4,2.247,2.247,0,0,0,2.342-2.4Z" transform="translate(-21.54 -36.72)"/><path class="a" d="M124.074,53.1c0,2.264-1.968,3.229-4.094,3.229a4.311,4.311,0,0,1-4.233-2.343l2.558-1.457a1.618,1.618,0,0,0,1.671,1.161c.708,0,1.063-.217,1.063-.61,0-1.084-4.843-.512-4.843-3.918,0-2.147,1.812-3.229,3.859-3.229a4.3,4.3,0,0,1,3.838,2.106l-2.52,1.358a1.429,1.429,0,0,0-1.319-.866c-.512,0-.827.2-.827.551C119.231,50.2,124.074,49.455,124.074,53.1Z" transform="translate(-21.605 -36.72)"/><path class="a" d="M134.916,46.209v9.844h-2.953v-.926a3.363,3.363,0,0,1-2.814,1.2c-1.989,0-3.679-1.417-3.679-4.077V46.209h2.953v5.61a1.623,1.623,0,0,0,1.712,1.79c1.083,0,1.831-.629,1.831-2.027V46.212Z" transform="translate(-21.659 -36.722)"/><path class="a" d="M151.916,50.007V56.05h-2.953V50.262c0-.984-.472-1.614-1.417-1.614-.984,0-1.536.689-1.536,1.85V56.05h-2.952V50.262c0-.984-.472-1.614-1.418-1.614-.984,0-1.535.689-1.535,1.85V56.05h-2.953V46.206H140.1v.9a3.022,3.022,0,0,1,2.638-1.18,2.928,2.928,0,0,1,2.578,1.3,3.244,3.244,0,0,1,2.855-1.3C150.436,45.932,151.916,47.546,151.916,50.007Z" transform="translate(-21.725 -36.72)"/><circle class="a" cx="2.192" cy="2.192" r="2.192" transform="translate(130.497 5.043)"/></svg>