<svg xmlns="http://www.w3.org/2000/svg" width="36" height="42.508" viewBox="0 0 36 42.508"><defs><style>.a{fill:#020288;}.b{fill:#e2c4ff;}</style></defs><g transform="translate(-39.194)"><g transform="translate(39.194 0)"><path class="a" d="M74.95,13.256a.83.83,0,0,0,0-1.175L70.529,7.667a.83.83,0,0,0-1.173,0L67.082,9.937a17.62,17.62,0,0,0-6.725-2.708,4.312,4.312,0,1,0-6.326,0,17.62,17.62,0,0,0-6.725,2.708L45.032,7.667a.83.83,0,0,0-1.173,0l-4.422,4.414a.83.83,0,0,0,0,1.175l2.422,2.418a17.809,17.809,0,1,0,30.668,0ZM69.942,9.428l3.246,3.24-1.6,1.592a18.136,18.136,0,0,0-3.161-3.326ZM57.194,1.66a2.644,2.644,0,0,1,.83,5.157V4.9a.83.83,0,1,0-1.66,0V6.818a2.644,2.644,0,0,1,.83-5.157ZM41.2,12.669l3.246-3.24,1.51,1.507a18.136,18.136,0,0,0-3.161,3.326ZM57.194,40.848A16.118,16.118,0,1,1,73.343,24.729,16.152,16.152,0,0,1,57.194,40.848Z" transform="translate(-39.194 0)"/></g><g transform="translate(44.45 12.289)"><ellipse class="b" cx="12.744" cy="12.58" rx="12.744" ry="12.58"/><g transform="translate(11.92 2.247)"><path class="a" d="M246.824,174.341a.824.824,0,0,1-.824-.824v-.281a.824.824,0,0,1,1.647,0v.281A.824.824,0,0,1,246.824,174.341Z" transform="translate(-246 -172.413)"/><g transform="translate(0 18.738)"><path class="a" d="M246.824,401.823A.824.824,0,0,1,246,401v-.281a.824.824,0,1,1,1.647,0V401A.824.824,0,0,1,246.824,401.823Z" transform="translate(-246 -399.895)"/></g></g><g transform="translate(2.269 11.756)"><g transform="translate(19.021)"><path class="a" d="M359.139,289.506h-.281a.824.824,0,0,1,0-1.647h.281a.824.824,0,1,1,0,1.647Z" transform="translate(-358.034 -287.859)"/></g><path class="a" d="M131.658,289.506h-.281a.824.824,0,1,1,0-1.647h.281a.824.824,0,0,1,0,1.647Z" transform="translate(-130.553 -287.859)"/></g><g transform="translate(5.196 5.032)"><g transform="translate(13.25)"><path class="a" d="M326.045,208.073a.824.824,0,0,1-.582-1.406l.2-.2a.824.824,0,0,1,1.165,1.165l-.2.2A.822.822,0,0,1,326.045,208.073Z" transform="translate(-325.221 -206.227)"/></g><g transform="translate(0 13.25)"><path class="a" d="M165.191,368.926a.824.824,0,0,1-.582-1.406l.2-.2a.824.824,0,1,1,1.165,1.165l-.2.2A.821.821,0,0,1,165.191,368.926Z" transform="translate(-164.367 -367.08)"/></g></g><g transform="translate(5.196 5.032)"><g transform="translate(13.25 13.25)"><path class="a" d="M326.244,368.926a.821.821,0,0,1-.582-.241l-.2-.2a.824.824,0,1,1,1.165-1.165l.2.2a.824.824,0,0,1-.583,1.406Z" transform="translate(-325.221 -367.08)"/></g><path class="a" d="M165.39,208.073a.821.821,0,0,1-.582-.241l-.2-.2a.824.824,0,0,1,1.165-1.165l.2.2a.824.824,0,0,1-.583,1.406Z" transform="translate(-164.367 -206.227)"/></g><path class="a" d="M230.633,227.321h-2.082a2.855,2.855,0,0,0-1.9-1.9v-2.579a.824.824,0,1,0-1.647,0v2.579a2.843,2.843,0,1,0,3.545,3.545h2.082a.824.824,0,0,0,0-1.647Zm-4.8,2.019a1.2,1.2,0,1,1,1.2-1.2A1.2,1.2,0,0,1,225.83,229.34Z" transform="translate(-212.937 -215.688)"/></g></g></svg>